<?xml version="1.0" encoding="iso-8859-1"?>
<!-- Generator: Adobe Illustrator 18.1.1, SVG Export Plug-In . SVG Version: 6.00 Build 0)  -->
<svg version="1.1" id="Capa_1" xmlns="http://www.w3.org/2000/svg" xmlns:xlink="http://www.w3.org/1999/xlink" x="0px" y="0px"
	 viewBox="0 0 49.724 49.724" style="enable-background:new 0 0 49.724 49.724;" xml:space="preserve">
<g>
	<path style="fill:#010002;" d="M31.351,8.417c-5.781,0-10.484,4.703-10.484,10.483c0,5.781,4.703,10.484,10.484,10.484
		S41.834,24.681,41.834,18.9C41.835,13.119,37.132,8.417,31.351,8.417z M31.351,28.134c-5.092,0-9.234-4.143-9.234-9.234
		s4.142-9.233,9.234-9.233c5.091,0,9.233,4.142,9.233,9.233C40.585,23.991,36.443,28.134,31.351,28.134z"/>
	<path style="fill:#010002;" d="M31.351,0.528c-10.131,0-18.373,8.241-18.373,18.371c0,3.066,0.786,6.114,2.273,8.821L0.193,42.119
		C0.074,42.233,0.004,42.392,0,42.557c-0.003,0.167,0.058,0.326,0.173,0.446l5.739,6c0.118,0.125,0.279,0.193,0.452,0.193
		c0.163,0,0.316-0.062,0.432-0.173l15.067-14.406c2.87,1.737,6.148,2.654,9.489,2.654c10.13,0,18.372-8.242,18.372-18.372
		C49.723,8.77,41.482,0.528,31.351,0.528z M31.351,36.022c-3.271,0-6.464-0.939-9.232-2.717c-0.235-0.151-0.567-0.121-0.77,0.074
		L6.384,47.687L1.509,42.59l14.959-14.303c0.21-0.201,0.254-0.517,0.107-0.767c-1.535-2.625-2.347-5.606-2.347-8.621
		c0-9.44,7.681-17.121,17.123-17.121c9.441,0,17.122,7.681,17.122,17.121C48.473,28.341,40.792,36.022,31.351,36.022z"/>
</g>
<g>
</g>
<g>
</g>
<g>
</g>
<g>
</g>
<g>
</g>
<g>
</g>
<g>
</g>
<g>
</g>
<g>
</g>
<g>
</g>
<g>
</g>
<g>
</g>
<g>
</g>
<g>
</g>
<g>
</g>
</svg>
