<?xml version="1.0" encoding="iso-8859-1"?>
<!-- Generator: Adobe Illustrator 19.0.0, SVG Export Plug-In . SVG Version: 6.00 Build 0)  -->
<svg version="1.1" id="Capa_1" xmlns="http://www.w3.org/2000/svg" xmlns:xlink="http://www.w3.org/1999/xlink" x="0px" y="0px"
	 viewBox="0 0 502.676 502.676" style="enable-background:new 0 0 502.676 502.676;" xml:space="preserve">
<g>
	<g>
		<g>
			<rect x="62.706" y="141.791" width="261.632" height="26.144"/>
			<polygon points="249.164,231.158 62.706,231.158 62.706,257.302 222.222,257.302 			"/>
			<polygon points="62.706,346.735 188.938,346.735 194.568,320.548 62.706,320.548 			"/>
			<path d="M391.941,120.565V97.851c-0.022-23.361-19.155-42.473-42.516-42.473H42.516C19.133,55.378,0,74.49,0,97.851v306.931
				c0,23.383,19.133,42.516,42.516,42.516h306.931c23.361,0,42.494-19.133,42.494-42.516V259.459l71.744-82.789l-68.725-59.578
				L391.941,120.565z M359.757,410.821H32.162V129.323V99.857h327.574v29.466v28.409L245.001,290.176l68.681,59.622l46.118-53.215
				v114.26h-0.043V410.821z"/>
			<path d="M496.797,115.258l-45.795-39.647c-6.256-5.479-15.207-5.608-19.759-0.345l-28.689,33.111l68.768,59.557l28.646-33.111
				C504.605,129.581,503.117,120.673,496.797,115.258z"/>
			<polygon points="215.88,387.288 219.396,390.307 305.96,358.793 237.214,299.193 			"/>
		</g>
	</g>
	<g>
	</g>
	<g>
	</g>
	<g>
	</g>
	<g>
	</g>
	<g>
	</g>
	<g>
	</g>
	<g>
	</g>
	<g>
	</g>
	<g>
	</g>
	<g>
	</g>
	<g>
	</g>
	<g>
	</g>
	<g>
	</g>
	<g>
	</g>
	<g>
	</g>
</g>
<g>
</g>
<g>
</g>
<g>
</g>
<g>
</g>
<g>
</g>
<g>
</g>
<g>
</g>
<g>
</g>
<g>
</g>
<g>
</g>
<g>
</g>
<g>
</g>
<g>
</g>
<g>
</g>
<g>
</g>
</svg>
